<svg width="96" height="96" xmlns="http://www.w3.org/2000/svg" xmlns:xlink="http://www.w3.org/1999/xlink" overflow="hidden"><defs><clipPath id="clip0"><rect x="592" y="312" width="96" height="96"/></clipPath></defs><g clip-path="url(#clip0)" transform="translate(-592 -312)"><path d="M643 398 643 385.8C654.3 384.3 663 374.7 663 363L663 353 657 353 657 363C657 372.4 649.4 380 640 380 630.6 380 623 372.4 623 363L623 353 617 353 617 363C617 374.7 625.7 384.3 637 385.8L637 398 616 398 616 404 664 404 664 398 643 398Z" fill="#FFFFFF"/><path d="M640 376C647.2 376 653 370.2 653 363L643 363 643 359 653 359 653 353 643 353 643 349 653 349 653 343 643 343 643 339 653 339 653 333 643 333 643 329 653 329C653 321.8 647.2 316 640 316 632.8 316 627 321.8 627 329L627 363C627 370.2 632.8 376 640 376Z" fill="#FFFFFF"/></g></svg>